<svg version="1" xmlns="http://www.w3.org/2000/svg" width="286.667" height="286.667" viewBox="0 0 215.000000 215.000000"><path d="M103 2.6C91.2 6.8 84.1 16.1 83.2 28.3c-1.9 27.2 31.9 41.6 51.2 21.8 10.4-10.7 10.7-27.9.7-39.4-7.1-8-21.9-11.8-32.1-8.1zM121.1 64.3c-3.7 2.2-14.2 3.3-17.1 1.7-1.1-.6-2.8.2-6 3l-4.5 3.9 3.8 1.6c9.3 3.9 23 2.8 31.5-2.5l4.2-2.6-2.7-2.3c-6-5.1-5.6-5-9.2-2.8z"/><path d="M133 75.6c-5.5 3.9-16.3 6.8-25.1 6.7-7.6 0-21.1-3.3-22.4-5.3-1.1-1.8-4-1-7.8 2.4l-3.9 3.2 5.9 3.1c12 6.3 27.8 8.5 41.2 5.7 6.8-1.4 18.9-6.8 23-10.1l2.5-2-3.5-3.1c-4.1-3.8-5.4-3.8-9.9-.6z"/><path d="M150 87.6c-5.2 3.9-16.7 9.1-24 11.1-4.6 1.2-10.2 1.7-19 1.7-14.9 0-21.5-1.5-34.4-7.9l-8.9-4.4-3.8 3.2-3.9 3.2 2.8 2.3c5.1 4.3 18.4 9.9 30.3 12.8 5.6 1.4 29.5 1.2 36.4-.3 12.6-2.7 24.7-8.2 35.9-16.4.7-.6-6.1-7.9-7.4-7.8-.3 0-2.1 1.1-4 2.5zM164.8 99.7c-1.8 1.5-3.5 2.8-3.7 3-.2.1 1.6 2.4 3.9 5 6.7 7.7 10 16.2 10 26.1 0 13.7-6.1 28.1-17.3 40.6l-3.5 4 4.1 3.3 4 3.4 2.6-2.3c8.1-7.2 18.2-24.5 20.7-35.5 1.4-6 1.6-17.9.4-23.2-.6-3.1-2.5-8.3-4.1-11.6-3.3-6.7-10.3-15.5-12.4-15.5-.7 0-2.8 1.2-4.7 2.7zM43.3 104.5c-6.1 7-12.3 17.2-15.2 25-3.1 8.3-3.3 8.9-3.7 18.6-.4 9.6 1.1 16.5 5.2 24.7 2.5 5 10.8 15.2 12.2 15.2.4 0 2.4-1.5 4.6-3.3l3.8-3.2-3.6-4c-2-2.2-5.1-6.9-6.9-10.5-3-6-3.2-7.2-3.2-16.5 0-8 .5-11.3 2.3-16.4 2.3-6.1 7.9-16.5 10.5-19.4.6-.7 2.8-3 4.6-5l3.5-3.7-3.4-3.5c-1.9-1.9-3.9-3.5-4.6-3.5-.7 0-3.4 2.5-6.1 5.5z"/><path d="M147.1 114l-3.3 2.8 2.5 3.4c1.4 1.8 3.1 4.7 3.7 6.3 1.7 4.3 1.5 13.3-.4 18.5-1.7 4.7-9.5 17-10.8 17-1.8 0-.6 2.2 3 5.4 3.5 3.3 3.8 3.4 5.5 1.8 2.4-2.1 7.9-9.7 10.4-14.2 5.5-9.7 7.1-23.6 3.9-31.5-2.3-5.3-7.7-12.5-9.5-12.5-.9.1-3.1 1.4-5 3zM62.2 117.4c-11.6 12.3-16.8 28.4-13.4 41 1.3 4.5 5.3 11.4 8 14 2 1.8 2.2 1.8 5-.2 5.2-3.8 5.8-5 3.4-7.5-8.3-8.8-6.7-24.3 4-38.4 2.7-3.6 4.8-6.6 4.6-6.7-.2 0-1.9-1.6-3.9-3.4l-3.5-3.2-4.2 4.4z"/><path d="M131.2 127.2c-3.3 2.5-3.9 3.5-3.1 4.9 1.9 3.7.2 9.7-4.4 14.7l-2.1 2.3 3.7 3.7c4.5 4.5 5.5 4.1 11-4.1 4.6-6.8 5.9-14.4 3.4-19.3-2.8-5.4-3.9-5.7-8.5-2.2zM78.5 130.7c-8.8 10.4-10.8 20.7-5.2 27.6l2.2 2.7 4.4-3.8c3-2.6 4.1-4.1 3.3-4.6-2.8-1.7-.6-9.3 4.3-15l2.5-3-2.7-2.9c-4.6-4.8-5.5-4.9-8.8-1zM98.7 141.7l-3.6 4.8 5.6.3c7.1.4 7.5.2 11.3-5.2l3.1-4.6h-12.9l-3.5 4.7zM111 158.1c-4.8 2.6-9.5 3.3-14.5 2.2-4-.9-4.6-.8-8.4 2.1-2.2 1.7-3.9 3.5-3.7 4.1.6 2.1 8.3 3.9 16.6 3.9 7.5 0 9.2-.3 14.5-3 3.3-1.6 6-3.4 6-4 0-.6-1.6-2.4-3.5-4.1l-3.5-3.1-3.5 1.9zM127 172.3c-13.4 8.9-32.5 10.3-46.7 3.4l-5.2-2.5-4.1 3.1c-2.2 1.7-4 3.5-4 3.9 0 .4 3.3 2.3 7.3 4.2 16.9 8 36.2 7.9 53.3-.4 3.4-1.6 7.3-3.9 8.8-5.1l2.6-2.1-4.1-3.4c-2.2-1.9-4.2-3.4-4.3-3.4-.1 0-1.7 1-3.6 2.3z"/><path d="M142.5 187.7c-22.8 15.6-55.5 16.9-78.8 3.1-2.7-1.6-5.2-3-5.6-3.1-.4-.1-2.6 1.3-5 3.2l-4.1 3.4 3.6 2.5c18.8 12.7 47.1 17 71.7 10.6 10.6-2.7 30.8-13.3 30.7-16.2 0-.4-1.7-2.1-3.8-3.8l-3.7-3.1-5 3.4z"/></svg>